<mxfile host="drawio-plugin" modified="2024-01-11T19:33:53.198Z" agent="5.0 (Windows NT 6.2; Win64; x64) AppleWebKit/537.36 (KHTML, like Gecko) Chrome/104.0.5112.102 Safari/537.36" etag="yHesp5AItHH20rK_vKdT" version="20.5.3" type="embed"><diagram id="cBFF7mbd__68j_7iU_Ab" name="Page-1"><mxGraphModel dx="680" dy="563" grid="1" gridSize="10" guides="1" tooltips="1" connect="1" arrows="1" fold="1" page="1" pageScale="1" pageWidth="850" pageHeight="1100" math="0" shadow="0"><root><mxCell id="0"/><mxCell id="1" parent="0"/><mxCell id="17" value="«interface»&lt;br&gt;&lt;b&gt;Comand&lt;/b&gt;" style="html=1;fillColor=#60a917;fontColor=#ffffff;strokeColor=#2D7600;" vertex="1" parent="1"><mxGeometry x="290" y="20" width="150" height="30" as="geometry"/></mxCell><mxCell id="18" value="&lt;p style=&quot;margin: 4px 0px 0px;&quot;&gt;+ method:execute()&amp;nbsp; &amp;nbsp; void&lt;br&gt;&lt;br&gt;&lt;/p&gt;" style="verticalAlign=top;align=left;overflow=fill;fontSize=12;fontFamily=Helvetica;html=1;fillColor=#6d8764;fontColor=#ffffff;strokeColor=#3A5431;" vertex="1" parent="1"><mxGeometry x="290" y="50" width="150" height="20" as="geometry"/></mxCell><mxCell id="19" value="StopCarCommand" style="swimlane;fontStyle=1;align=center;verticalAlign=top;childLayout=stackLayout;horizontal=1;startSize=26;horizontalStack=0;resizeParent=1;resizeParentMax=0;resizeLast=0;collapsible=1;marginBottom=0;fillColor=#1ba1e2;fontColor=#ffffff;strokeColor=#006EAF;" vertex="1" parent="1"><mxGeometry x="110" y="113" width="180" height="48" as="geometry"/></mxCell><mxCell id="20" value="+ field: car                           Car" style="text;strokeColor=#432D57;fillColor=#76608a;align=left;verticalAlign=top;spacingLeft=4;spacingRight=4;overflow=hidden;rotatable=0;points=[[0,0.5],[1,0.5]];portConstraint=eastwest;fontColor=#ffffff;" vertex="1" parent="19"><mxGeometry y="26" width="180" height="22" as="geometry"/></mxCell><mxCell id="23" value="StartCarCommand" style="swimlane;fontStyle=1;align=center;verticalAlign=top;childLayout=stackLayout;horizontal=1;startSize=26;horizontalStack=0;resizeParent=1;resizeParentMax=0;resizeLast=0;collapsible=1;marginBottom=0;fillColor=#1ba1e2;fontColor=#ffffff;strokeColor=#006EAF;" vertex="1" parent="1"><mxGeometry x="440" y="123" width="180" height="48" as="geometry"/></mxCell><mxCell id="24" value="+ field: car                           Car" style="text;strokeColor=#432D57;fillColor=#76608a;align=left;verticalAlign=top;spacingLeft=4;spacingRight=4;overflow=hidden;rotatable=0;points=[[0,0.5],[1,0.5]];portConstraint=eastwest;fontColor=#ffffff;" vertex="1" parent="23"><mxGeometry y="26" width="180" height="22" as="geometry"/></mxCell><mxCell id="27" value="&lt;p style=&quot;margin: 4px 0px 0px;&quot;&gt;+ method:execute()&amp;nbsp; &amp;nbsp; void&lt;br&gt;&lt;br&gt;&lt;/p&gt;" style="verticalAlign=top;align=left;overflow=fill;fontSize=12;fontFamily=Helvetica;html=1;fillColor=#6d8764;fontColor=#ffffff;strokeColor=#3A5431;" vertex="1" parent="1"><mxGeometry x="110" y="161" width="180" height="20" as="geometry"/></mxCell><mxCell id="29" value="&lt;p style=&quot;margin: 4px 0px 0px;&quot;&gt;+ method:execute()&amp;nbsp; &amp;nbsp; void&lt;br&gt;&lt;br&gt;&lt;/p&gt;" style="verticalAlign=top;align=left;overflow=fill;fontSize=12;fontFamily=Helvetica;html=1;fillColor=#6d8764;fontColor=#ffffff;strokeColor=#3A5431;" vertex="1" parent="1"><mxGeometry x="440" y="171" width="180" height="20" as="geometry"/></mxCell><mxCell id="30" value="" style="endArrow=block;dashed=1;endFill=0;endSize=12;html=1;rounded=0;fillColor=#60a917;strokeColor=#80FF00;" edge="1" parent="1"><mxGeometry width="160" relative="1" as="geometry"><mxPoint x="510.1400000000001" y="116" as="sourcePoint"/><mxPoint x="440" y="40" as="targetPoint"/><Array as="points"><mxPoint x="510" y="116.39999999999998"/></Array></mxGeometry></mxCell><mxCell id="31" value="" style="endArrow=block;dashed=1;endFill=0;endSize=12;html=1;rounded=0;fillColor=#60a917;strokeColor=#80FF00;" edge="1" parent="1"><mxGeometry width="160" relative="1" as="geometry"><mxPoint x="220" y="113" as="sourcePoint"/><mxPoint x="290" y="43" as="targetPoint"/><Array as="points"><mxPoint x="250" y="83"/></Array></mxGeometry></mxCell><mxCell id="32" value="Car" style="swimlane;fontStyle=1;align=center;verticalAlign=top;childLayout=stackLayout;horizontal=1;startSize=26;horizontalStack=0;resizeParent=1;resizeParentMax=0;resizeLast=0;collapsible=1;marginBottom=0;fillColor=#1ba1e2;fontColor=#ffffff;strokeColor=#006EAF;" vertex="1" parent="1"><mxGeometry x="110" y="240" width="180" height="78" as="geometry"/></mxCell><mxCell id="33" value="+ method: stop()                  void" style="text;strokeColor=#006EAF;fillColor=#6D8764;align=left;verticalAlign=top;spacingLeft=4;spacingRight=4;overflow=hidden;rotatable=0;points=[[0,0.5],[1,0.5]];portConstraint=eastwest;fontColor=#FFFFFF;" vertex="1" parent="32"><mxGeometry y="26" width="180" height="26" as="geometry"/></mxCell><mxCell id="34" value="+ method: start()                  void" style="text;strokeColor=#006EAF;fillColor=#6D8764;align=left;verticalAlign=top;spacingLeft=4;spacingRight=4;overflow=hidden;rotatable=0;points=[[0,0.5],[1,0.5]];portConstraint=eastwest;fontColor=#FFFFFF;" vertex="1" parent="32"><mxGeometry y="52" width="180" height="26" as="geometry"/></mxCell><mxCell id="35" value="OnionHDog" style="swimlane;fontStyle=1;align=center;verticalAlign=top;childLayout=stackLayout;horizontal=1;startSize=26;horizontalStack=0;resizeParent=1;resizeParentMax=0;resizeLast=0;collapsible=1;marginBottom=0;fillColor=#1ba1e2;fontColor=#ffffff;strokeColor=#006EAF;" vertex="1" parent="1"><mxGeometry x="380" y="230" width="230" height="48" as="geometry"/></mxCell><mxCell id="36" value="+ field: command             Command" style="text;strokeColor=#432D57;fillColor=#76608a;align=left;verticalAlign=top;spacingLeft=4;spacingRight=4;overflow=hidden;rotatable=0;points=[[0,0.5],[1,0.5]];portConstraint=eastwest;fontColor=#ffffff;" vertex="1" parent="35"><mxGeometry y="26" width="230" height="22" as="geometry"/></mxCell><mxCell id="37" value="+ method: pressButton()                    void" style="text;strokeColor=#006EAF;fillColor=#6D8764;align=left;verticalAlign=top;spacingLeft=4;spacingRight=4;overflow=hidden;rotatable=0;points=[[0,0.5],[1,0.5]];portConstraint=eastwest;fontColor=#FFFFFF;" vertex="1" parent="1"><mxGeometry x="380" y="304" width="230" height="26" as="geometry"/></mxCell><mxCell id="38" value="+ method: setCommand(Command)  void" style="text;strokeColor=#006EAF;fillColor=#6D8764;align=left;verticalAlign=top;spacingLeft=4;spacingRight=4;overflow=hidden;rotatable=0;points=[[0,0.5],[1,0.5]];portConstraint=eastwest;fontColor=#FFFFFF;" vertex="1" parent="1"><mxGeometry x="380" y="278" width="230" height="26" as="geometry"/></mxCell></root></mxGraphModel></diagram></mxfile>